<svg width="77" height="86" viewBox="0 0 77 86" fill="none" xmlns="http://www.w3.org/2000/svg">
<path d="M60.2667 55.3147C57.5627 60.2017 53.3261 64.055 48.2154 66.2754C43.1047 68.4959 37.4065 68.9591 32.0065 67.593C26.6065 66.2269 21.8075 63.1082 18.3555 58.7215C14.9034 54.3349 12.9919 48.9263 12.918 43.3366C12.8441 37.7468 14.612 32.2892 17.9468 27.8122C21.2816 23.3351 25.9965 20.0896 31.3585 18.5802C36.7204 17.0707 42.429 17.3819 47.5965 19.4654C52.7641 21.5489 57.1011 25.2879 59.9334 30.1012L48.9237 36.6296C47.5249 34.2524 45.3829 32.4058 42.8308 31.3768C40.2786 30.3478 37.4593 30.1941 34.8112 30.9396C32.163 31.6851 29.8344 33.288 28.1874 35.4991C26.5404 37.7102 25.6673 40.4056 25.7038 43.1662C25.7403 45.9269 26.6844 48.5981 28.3893 50.7645C30.0942 52.931 32.4643 54.4713 35.1312 55.1459C37.7981 55.8206 40.6124 55.5918 43.1364 54.4952C45.6605 53.3986 47.7529 51.4956 49.0883 49.082L60.2667 55.3147Z" stroke="#7B3FBF" stroke-width="2"/>
</svg>
