<svg width="77" height="86" viewBox="0 0 77 86" fill="none" xmlns="http://www.w3.org/2000/svg">
<path d="M34.7764 1.95045C36.9714 0.683184 39.6757 0.683184 41.8706 1.95045L72.0999 19.4033C74.2949 20.6706 75.647 23.0126 75.647 25.5471V60.4529C75.647 62.9874 74.2949 65.3294 72.0999 66.5967L41.8706 84.0495C39.6757 85.3168 36.9714 85.3168 34.7764 84.0496L4.54712 66.5967C2.35215 65.3294 1 62.9874 1 60.4529V25.5471C1 23.0126 2.35215 20.6706 4.54712 19.4033L34.7764 1.95045Z" stroke="#7B3FBF" stroke-width="2"/>
<path d="M60.495 55.3147C57.7806 60.2017 53.5276 64.055 48.3972 66.2754C43.2669 68.4959 37.5467 68.9591 32.1259 67.593C26.7052 66.2269 21.8876 63.1081 18.4223 58.7215C14.957 54.3349 13.038 48.9263 12.9639 43.3366C12.8897 37.7468 14.6644 32.2892 18.0121 27.8122C21.3597 23.3351 26.0928 20.0896 31.4754 18.5802C36.858 17.0707 42.5885 17.3819 47.776 19.4654C52.9634 21.5489 57.3172 25.2879 60.1603 30.1012L49.1082 36.6296C47.7041 34.2524 45.5538 32.4058 42.9919 31.3768C40.4299 30.3478 37.5997 30.1941 34.9414 30.9396C32.283 31.6851 29.9455 33.288 28.2921 35.4991C26.6388 37.7102 25.7623 40.4056 25.7989 43.1662C25.8356 45.9269 26.7833 48.5981 28.4947 50.7645C30.2062 52.931 32.5855 54.4713 35.2627 55.1459C37.9398 55.8206 40.7649 55.5918 43.2987 54.4952C45.8325 53.3986 47.9329 51.4955 49.2735 49.082L60.495 55.3147Z" stroke="#7B3FBF" stroke-width="2"/>
</svg>
