<svg width="50" height="50" viewBox="0 0 50 50" fill="none" xmlns="http://www.w3.org/2000/svg">
<path d="M32.4058 47.5V37.1181C32.4058 34.9566 30.0298 33.4796 28.8418 33.0112H31.1098C32.9458 33.0112 36.1858 32.687 38.4538 30.6335C41.1203 28.2192 42.1738 24.5802 42.2338 22.9601C42.3418 20.0421 41.9098 18.4209 40.9378 17.0159C40.1602 15.8919 39.3898 15.1786 39.1018 14.9625C39.4711 11.3457 39.4055 9.80011 38.7778 7.9375C35.6928 8.2365 33.9673 9.08858 30.8938 11.2879H20.3259C17.2524 9.08858 15.5268 8.2365 12.4419 7.9375C11.8142 9.80011 11.7486 11.3457 12.1179 14.9625C11.8299 15.1786 11.0595 15.8919 10.2819 17.0159C9.30989 18.4209 8.87789 20.0421 8.98589 22.9601C9.04585 24.5802 10.0993 28.2192 12.7659 30.6335C15.0339 32.687 18.2739 33.0112 20.1099 33.0112H22.3779C21.1899 33.4796 18.8139 34.9566 18.8139 37.1181V37.521C17.9821 37.6198 16.852 37.7425 15.9897 37.4424C13.5057 36.5778 13.2897 34.3082 11.5617 32.9032C9.67807 31.3716 7.99769 31.7143 7.78169 32.687C7.56569 33.6597 8.49211 33.8809 9.40169 34.9566C10.5897 36.3616 11.1297 37.9827 12.3177 39.0635C13.8191 40.4294 15.6657 40.6847 17.8257 40.6847H18.8139V47.5M6.625 49H43.375C46.4816 49 49 46.4816 49 43.375V6.625C49 3.5184 46.4816 1 43.375 1H6.625C3.5184 1 1 3.5184 1 6.625V43.375C1 46.4816 3.5184 49 6.625 49ZM7.1875 47.5H42.8125C45.4013 47.5 47.5 45.4013 47.5 42.8125V7.1875C47.5 4.59867 45.4013 2.5 42.8125 2.5H7.1875C4.59867 2.5 2.5 4.59867 2.5 7.1875V42.8125C2.5 45.4013 4.59867 47.5 7.1875 47.5Z" stroke="#EA67FF"/>
</svg>
