<svg width="50" height="50" viewBox="0 0 50 50" fill="none" xmlns="http://www.w3.org/2000/svg">
<path d="M27.4955 41.125V24.1111L41.3125 25.7782C41.3125 24.0481 41.1341 22.594 40.7773 21.4157L41.2563 21.2725C41.2562 21.2722 41.2561 21.2719 41.2561 21.2716C40.8829 20.0242 40.3301 18.9958 39.5814 18.2106C38.8573 17.4209 37.9857 16.8467 36.9731 16.4919C35.9765 16.1428 34.8865 15.9717 33.708 15.9717C32.2448 15.9717 30.8936 16.2531 29.6622 16.8233L29.6599 16.8243C28.7472 17.2525 27.9292 17.8275 27.2069 18.5464L27.1976 18.4337L27.0701 16.8782L27.0324 16.4191H26.5718H20.0154H19.5154V16.9191V41.125V41.625H20.0154H26.9955H27.4955V41.125ZM15.6538 16.9191V16.4191H15.1538H8.17371H7.67371V16.9191V41.125V41.625H8.17371H15.1538H15.6538V41.125V16.9191ZM14.7744 13.5102L14.7748 13.5098C15.6109 12.7567 16.0329 11.7929 16.0329 10.6551C16.0329 9.50644 15.6136 8.54064 14.7746 7.80012C13.9518 7.04544 12.8873 6.6875 11.6303 6.6875C10.3724 6.6875 9.30723 7.04599 8.4841 7.80186C7.65976 8.5437 7.25 9.50916 7.25 10.6551C7.25 11.7893 7.66187 12.7522 8.48199 13.5064L8.48197 13.5064L8.48622 13.5102C9.30993 14.2504 10.3743 14.6003 11.6303 14.6003C12.8863 14.6003 13.9507 14.2504 14.7744 13.5102ZM43.375 0.5H6.625C3.24226 0.5 0.5 3.24226 0.5 6.625V43.375C0.5 46.7577 3.24226 49.5 6.625 49.5H43.375C46.7577 49.5 49.5 46.7577 49.5 43.375V6.625C49.5 3.24226 46.7577 0.5 43.375 0.5ZM7.1875 3H42.8125C45.1252 3 47 4.87481 47 7.1875V42.8125C47 45.1252 45.1252 47 42.8125 47H7.1875C4.87481 47 3 45.1252 3 42.8125V7.1875C3 4.87481 4.87481 3 7.1875 3Z" stroke="#EA67FF"/>
</svg>
